<?xml version="1.0" encoding="UTF-8" standalone="no"?> <svg xmlns="http://www.w3.org/2000/svg" viewBox="0 0 64 37.33"><defs><style>.cls-1{fill:#C7773E;}</style></defs><title>Asset 68</title><g id="Layer_2" data-name="Layer 2"><g id="Layer_1-2" data-name="Layer 1"><path class="cls-1" d="M32,37.33A37.11,37.11,0,0,1,.39,20.06a2.69,2.69,0,0,1,0-2.79A37.14,37.14,0,0,1,32,0,37.14,37.14,0,0,1,63.61,17.27a2.69,2.69,0,0,1,0,2.79A37.11,37.11,0,0,1,32,37.33ZM5.85,18.67A31.9,31.9,0,0,0,32,32,31.9,31.9,0,0,0,58.15,18.67,31.88,31.88,0,0,0,32,5.33,31.88,31.88,0,0,0,5.85,18.67Z"/><path class="cls-1" d="M32,26.67a8,8,0,1,1,8-8A8,8,0,0,1,32,26.67ZM32,16a2.67,2.67,0,1,0,2.67,2.67A2.68,2.68,0,0,0,32,16Z"/></g></g></svg>